<svg xmlns="http://www.w3.org/2000/svg" viewBox="0 0 24 24" id="balenciaga">
  <path d="M13.5 17.5a.75.75 0 0 1-.75-.75v-9a.75.75 0 0 1 1.5 0v9a.75.75 0 0 1-.75.75z"></path>
  <path d="M20 13h-6.169a.75.75 0 0 1 0-1.5H20c.827 0 1.5-.673 1.5-1.5s-.673-1.5-1.5-1.5h-6.5a.75.75 0 0 1 0-1.5H20c1.654 0 3 1.346 3 3s-1.346 3-3 3z"></path>
  <path d="M21 17.5h-7.419a.75.75 0 0 1 0-1.5H21c.827 0 1.5-.673 1.5-1.5S21.827 13 21 13h-7.5a.75.75 0 0 1 0-1.5H21c1.654 0 3 1.346 3 3s-1.346 3-3 3zm-10.5 0a.75.75 0 0 1-.75-.75v-9a.75.75 0 0 1 1.5 0v9a.75.75 0 0 1-.75.75z"></path>
  <path d="M10.169 13H4c-1.654 0-3-1.346-3-3s1.346-3 3-3h6.5a.75.75 0 0 1 0 1.5H4c-.827 0-1.5.673-1.5 1.5s.673 1.5 1.5 1.5h6.169a.75.75 0 0 1 0 1.5z"></path>
  <path d="M10.419 17.5H3c-1.654 0-3-1.346-3-3s1.346-3 3-3h7.5a.75.75 0 0 1 0 1.5H3c-.827 0-1.5.673-1.5 1.5S2.173 16 3 16h7.419a.75.75 0 0 1 0 1.5zM9 11.5a.751.751 0 0 1-.237-1.462l6-2a.751.751 0 0 1 .474 1.424l-6 2A.787.787 0 0 1 9 11.5z"></path>
  <path d="M9 14a.751.751 0 0 1-.237-1.462l6-2a.751.751 0 0 1 .474 1.424l-6 2A.787.787 0 0 1 9 14zm0 2.5a.751.751 0 0 1-.237-1.462l6-2a.75.75 0 0 1 .474 1.424l-6 2A.787.787 0 0 1 9 16.5z"></path>
</svg>
