<svg xmlns="http://www.w3.org/2000/svg" viewBox="0 0 24 24" id="calvin-klein">
  <path d="M8.55 24c-4.301 0-7.8-3.364-7.8-7.5S4.249 9 8.55 9c1.335 0 2.653.335 3.811.97a.75.75 0 1 1-.721 1.315 6.44 6.44 0 0 0-3.09-.785c-3.474 0-6.3 2.691-6.3 6s2.826 6 6.3 6c1.08 0 2.149-.269 3.095-.778a.75.75 0 1 1 .711 1.321A8.058 8.058 0 0 1 8.55 24zm6.2-5.78a.75.75 0 0 1-.539-1.272l6.5-6.72a.75.75 0 1 1 1.079 1.043l-6.5 6.72a.748.748 0 0 1-.54.229z"></path>
  <path d="M22.25 23.965a.75.75 0 0 1-.578-.271l-5.99-7.215a.75.75 0 1 1 1.154-.958l5.99 7.215a.75.75 0 0 1-.576 1.229z"></path>
  <path d="M14.75 24.25a.75.75 0 0 1-.75-.75V.5a.75.75 0 0 1 1.5 0v23a.75.75 0 0 1-.75.75z"></path>
</svg>
