<svg xmlns="http://www.w3.org/2000/svg" viewBox="0 0 24 24" id="casio">
  <path d="M2.8 16h-.6C.987 16 0 15.013 0 13.8v-2.6C0 9.987.987 9 2.2 9H3c1.103 0 2 .897 2 2v.13a.75.75 0 0 1-1.5 0V11c0-.275-.225-.5-.5-.5h-.8a.7.7 0 0 0-.7.7v2.6a.7.7 0 0 0 .7.7h.6a.7.7 0 0 0 .7-.7.75.75 0 0 1 1.5 0c0 1.213-.987 2.2-2.2 2.2zm6.949 0a.747.747 0 0 1-.732-.595l-1.038-4.893-.994 4.838a.749.749 0 1 1-1.469-.3L6.635 9.6c.071-.35.378-.6.734-.6h1.214a.75.75 0 0 1 .733.595l1.167 5.5a.75.75 0 0 1-.734.905z"></path>
  <path d="M9.43 14.5H6.54a.75.75 0 0 1 0-1.5h2.89a.75.75 0 0 1 0 1.5zm4.6 1.5h-1c-1.103 0-2-.897-2-2a.75.75 0 0 1 1.5 0c0 .275.225.5.5.5h1c.275 0 .5-.225.5-.5s-.225-.5-.5-.5h-.75c-1.24 0-2.25-1.01-2.25-2.25S12.04 9 13.28 9h.75c1.103 0 2 .897 2 2a.75.75 0 0 1-1.5 0c0-.275-.225-.5-.5-.5h-.75c-.413 0-.75.337-.75.75s.337.75.75.75h.75c1.103 0 2 .897 2 2s-.897 2-2 2zm3.47 0a.75.75 0 0 1-.75-.75v-5.5a.75.75 0 0 1 1.5 0v5.5a.75.75 0 0 1-.75.75zm4.75 0h-1.5c-.965 0-1.75-.785-1.75-1.75v-3.5c0-.965.785-1.75 1.75-1.75h1.5c.965 0 1.75.785 1.75 1.75v3.5c0 .965-.785 1.75-1.75 1.75zm-1.5-5.5a.25.25 0 0 0-.25.25v3.5c0 .138.112.25.25.25h1.5a.25.25 0 0 0 .25-.25v-3.5a.25.25 0 0 0-.25-.25h-1.5z"></path>
</svg>
