<svg xmlns="http://www.w3.org/2000/svg" viewBox="0 0 24 24" id="gucci">
  <path d="M15.913 20a8.155 8.155 0 0 1-2.703-.458 7.793 7.793 0 0 1-1.616-.793 8.001 8.001 0 0 1-1.611-1.329 7.744 7.744 0 0 1-1.986-3.824.75.75 0 0 1 .735-.896h1.8a.75.75 0 0 1 0 1.5h-.814a6.28 6.28 0 0 0 1.359 2.194c.383.414.826.778 1.323 1.09.414.267.852.481 1.309.643a6.657 6.657 0 0 0 2.205.373c3.632 0 6.587-2.916 6.587-6.5s-2.955-6.5-6.587-6.5a6.531 6.531 0 0 0-3.511 1.014A6.355 6.355 0 0 0 9.715 9.83a.75.75 0 0 1-1.417-.493 7.85 7.85 0 0 1 3.311-4.096A8.016 8.016 0 0 1 15.913 4C20.372 4 24 7.589 24 12s-3.628 8-8.087 8z"></path>
  <path d="M8.087 20C3.628 20 0 16.411 0 12s3.628-8 8.087-8c1.539 0 3.032.432 4.315 1.248a7.837 7.837 0 0 1 3.3 4.089.75.75 0 0 1-1.417.493 6.342 6.342 0 0 0-2.677-3.31A6.544 6.544 0 0 0 8.087 5.5C4.455 5.5 1.5 8.416 1.5 12s2.955 6.5 6.587 6.5c.757 0 1.5-.125 2.208-.374a6.24 6.24 0 0 0 1.299-.638 6.567 6.567 0 0 0 1.324-1.088 6.298 6.298 0 0 0 1.364-2.201h-.814a.75.75 0 0 1 0-1.5h1.8a.75.75 0 0 1 .735.896 7.76 7.76 0 0 1-1.992 3.831 8.008 8.008 0 0 1-1.612 1.327 7.798 7.798 0 0 1-1.606.788A8.16 8.16 0 0 1 8.087 20z"></path>
</svg>
