<svg xmlns="http://www.w3.org/2000/svg" viewBox="0 0 40 40" id="hermes">
  <path fill-rule="evenodd" d="M27.66 20.52h1.32l.33.39h-1.29l-.36-.39zM11.9 19.38h-.62v-.16h.46a.8.8 0 0 0 .16.16zm15.66 0a.2.2 0 0 1 .15-.16H28v.16zm-10.3.12a1.17 1.17 0 0 1-.9 0H13.1a1.31 1.31 0 0 1-1 0h-.83v.31H28v-.31zm-3.96-.12.18-.16H16a.81.81 0 0 0 .16.16zm3.52-.09a.8.8 0 1 0-.8-.79.8.8 0 0 0 .8.79v.16a1 1 0 1 1 .95-.95 1 1 0 0 1-.95.95v-.16zm-3.13-.92a1.09 1.09 0 1 0-1.08 1.08 1.09 1.09 0 0 0 1.08-1.08h-.18a.91.91 0 1 1-1.82 0 .91.91 0 0 1 1.82 0z"></path>
  <path fill-rule="evenodd" d="m17.33 19-.33-.34.49.13h.05a.3.3 0 0 1 0-.11h-.09l-.45-.13v-.09l.47-.18h.05v-.12a.06.06 0 0 1-.05.05l-.49.18.27-.41h.06l-.11-.07v.07l-.27.41v-.54h-.13v.54l-.31-.38v-.06l-.1.08a.11.11 0 0 1 .07 0l.31.38v.05l-.45-.13s-.05 0-.05-.05v.11h.07l.46.12v.08l-.45.19h-.05a.3.3 0 0 0 0 .12.06.06 0 0 1 0-.05l.44-.2-.28.41h-.05a.23.23 0 0 0 .1.07s0-.05 0-.07l.28-.39a.06.06 0 0 0 .05 0v.55h.13v-.55a.11.11 0 0 0 .06 0l.33.36v.07l.08-.08h-.05zm-4.76-1.25a4.18 4.18 0 0 1 1.18.13s0 0 0 .05a6 6 0 0 1-1.16.11 4.76 4.76 0 0 1-1.18-.04 3.77 3.77 0 0 1 1.16-.19v-.09a4.7 4.7 0 0 0-1.39.28 5.11 5.11 0 0 0 1.41.12 5.89 5.89 0 0 0 1.41-.19c.07 0 0-.05 0-.05a5 5 0 0 0-1.43-.22v.09zm4.87-.3a2.22 2.22 0 0 1-.41.1h-.77c-.28 0-.41.06-.42 0a2 2 0 0 0-.28-.44 4.37 4.37 0 0 1-2.22-.23v-.1a.3.3 0 0 0 .12 0c-.12-.17-.31-.22-.43-.4s-.08-.14-.14-.19c0 .18-.14.31-.15.46a.54.54 0 0 0 .28 0 .2.2 0 0 1 .18.05.34.34 0 0 0 .14 0v.1a.46.46 0 0 1-.16-.07.16.16 0 0 1-.18 0 .86.86 0 0 0-.25 0 .64.64 0 0 0-.55.26.32.32 0 0 0 0 .3 1.89 1.89 0 0 0 .28.33h-.13c-.2-.18-.34-.35-.31-.56.1-.46.52-.39.64-.59a1.45 1.45 0 0 0 0-.85c-.28-.12-.63-.26-.69-.59a.16.16 0 0 1 .09-.2.59.59 0 0 1 .37.1s-.05-.15.06-.15.25.3.3.31v.12a4.37 4.37 0 0 1-.49-.25c-.07 0-.15-.08-.2 0s0 .18.07.26c.77.8 2.05-.05 2.88.52v-.08c-.57-.54-1.49-.26-2.23-.44v-.12c.91.23 2.13-.14 2.6.91.31.44.64 1.14 1.31 1.16a1.24 1.24 0 0 0 1.17-.59 4.66 4.66 0 0 1 1.21-1.85h.07a3.68 3.68 0 0 0-.74 1.07c.25.93.79.74.92.72 0-.34 0-1.36.73-1.61a1.53 1.53 0 0 1 1.53-.18 3.8 3.8 0 0 0-1 1.86l-.64.18a.9.9 0 0 0 0-.45c-.07 0-.13.09-.28.17s0-.08 0-.08l.29-.18a1.41 1.41 0 0 1 .23-1.19c-.64.22-.46 1.56-.39 1.73a1.25 1.25 0 0 1-.43.08v-.23c-.28.1-.76 0-1-.71-.23.48-.43 1.23-1 1.43zm10-2h-.08c-.03 0 0 0 0 0h.06c.01 0 0 0 0 0z"></path>
  <path fill-rule="evenodd" d="m12.77 18.61.34.4a.07.07 0 0 1 0 .1.5.5 0 0 0 .15-.14.08.08 0 0 1-.1 0l-.36-.4.51.18c.05 0 .07.06.07.08l.06-.16a.11.11 0 0 1-.1 0l-.5-.18.52-.08h.1v-.18a.14.14 0 0 1-.1.08l-.5.08v-.05l.41-.34h.11l-.13-.15v.12l-.4.33.18-.51a.08.08 0 0 1 .08-.06.67.67 0 0 0-.18-.07s0 .07 0 .12l-.18.49h-.05l-.1-.53a.13.13 0 0 1 0-.09.67.67 0 0 0-.18 0 .13.13 0 0 1 .09.08l.09.51-.36-.39v-.1a.38.38 0 0 0-.14.11.14.14 0 0 1 .1 0l.36.4-.49-.18s-.08-.07-.06-.09a.89.89 0 0 0-.07.19.12.12 0 0 1 .12 0l.49.16v.07l-.53.1c-.05 0-.1 0-.1-.05a.59.59 0 0 0 0 .2s0-.06.08-.08l.51-.1-.41.32c0 .05-.1 0-.1 0s.08.13.1.15a.14.14 0 0 1 0-.1l.43-.33-.19.49c0 .05-.06.08-.08.07a1 1 0 0 0 .18.06s-.05-.05 0-.09l.18-.51.1.51a.15.15 0 0 1-.05.12.78.78 0 0 0 .18-.05s-.06 0-.06-.07l-.1-.52h.05zm14.44-3.09v-.1c0-.05-.1-.2-.05-.23s.21 0 .21 0 .2-.19.28-.24a.49.49 0 0 1 .34.34c0 .05-.11.13-.24.3.05.11.05.2 0 .26a.11.11 0 0 1-.08 0c0 .16.2.26.26.39s.28.59 0 .8a.46.46 0 0 0-.16.15c.05.26.15.54.19.82h-.31c0 .1-.13.28-.1.38a2.06 2.06 0 0 1 .05.65c0 .07.05.07 0 .18s-.17.1-.18.15-.31.1-.31.06.16-.18.19-.27a1.7 1.7 0 0 0-.2-1.16c-.08-.05-.15.08-.2.14a2.38 2.38 0 0 1 .22.79c0 .08.09.2 0 .31l-.26.13H26s-.1-.09-.08-.16h.85s.08 0 .17-.15c0-.39-.41-1-.35-1.16s.2-.44.33-.77h.06c-.14.49-.36.74-.32.89a.77.77 0 0 0 .1.24v.1a.47.47 0 0 0 .1.2.19.19 0 0 0 .14-.06.44.44 0 0 0-.08-.2l-.13.05v-.1c.09 0 .16-.06.08-.11.23-.12-.05-.08 0-.13a.62.62 0 0 0 .21-.46v-.05a4.18 4.18 0 0 0 .26.85v.08a.27.27 0 0 0 0 .2c.15 0 .13 0 .1-.2h-.14v-.08h.1a.4.4 0 0 1-.05-.23c0-.05 0-.15.07.06.05 0 .13-.38.15-.51-.31.07 0-.29-.23-.31l.11-.2a.09.09 0 0 0-.13-.08L27.3 17c-.05 0-.1-.1-.17-.15a.66.66 0 0 0-.15.22s0 0 .05 0 .09.05.17 0 .13-.05.1-.12l.06.08c-.06 0-.06.15-.06.23s-.07-.11-.2-.11-.12-.08-.17-.07h-.06a2.41 2.41 0 0 0 0-.38 3.09 3.09 0 0 1 .23-.7c0-.07.24-.2.23-.27a.13.13 0 0 1 .05.07c0 .08-.18.08-.17.26.1-.18.38-.16.4-.37s.06-.05.06-.19a.62.62 0 0 1-.14-.18s0-.11-.19-.11a1.16 1.16 0 0 1-.06.16s-.05.05 0 .07 0 0 0 .1a.12.12 0 0 0 0 .13c.13.06.23 0 .08.08a.3.3 0 0 0-.07-.1s-.1 0-.08-.11 0-.1 0-.13zm-4.41-.63c0 .12-.05.2-.05.31.12.28 0 .5 0 .76-.13-.08-.17-.3-.22-.53a1.55 1.55 0 0 1 0-.47l.19-.07z"></path>
  <path fill-rule="evenodd" d="M22.46 15a1.62 1.62 0 0 0 .18 1 13.58 13.58 0 0 1-1.87.66 3.41 3.41 0 0 1 1-1.8 3.08 3.08 0 0 0 .67.09zm-1.61 3.83c-.16.05-.16.14-.06.24a.49.49 0 0 1 .13.15h-1.05c0 .05.05.08.08.16h5.8c0-.08-.06-.18-.09-.27-.41-.15-.41-.53-.43-1a.41.41 0 0 1 0-.14 2.14 2.14 0 0 1-.2-1.28l.1-.18c.08-.12 0-.18 0-.31l1.23-.2v-.08l-1.18.21c.07-.3-.19-.4-.08-.64a2.37 2.37 0 0 0 .84.54L26 16a3 3 0 0 1-1.11-.85.24.24 0 0 1-.1-.05s.08.13.07.15a.61.61 0 0 1-.56 0 6.15 6.15 0 0 1-1.4.8 1.42 1.42 0 0 0 .4.79 1.93 1.93 0 0 0 .92.37c.06.2.31.84.32.94s.09.1.09.1a.86.86 0 0 1 .14.32v.35c0 .08.11 0 .13.1v.21h.24c-.13-.11-.05-.31-.21-.39s0-.35-.11-.43-.28-.72-.41-1.2l.08-.11a1.22 1.22 0 0 1-1-.21c-.24-.12-.1 0 0-.07a1.38 1.38 0 0 0 .89.1c0 .05.1.1.1.18l-.08.11c.08-.08.14 0 .19.2s.13.35.18.51.12.38.17.49.05 0 .08.07c.11.36.15.41.13.57s.21 0 .2.18h-4.28c.06-.26-.09-.49 0-.74-.17-.26-.58-.46-.51-.82s.83-.55.69-.88c.59-.3.88.19 1.42.15a2.27 2.27 0 0 0 .59-.09 2.13 2.13 0 0 1-.54-.7 19.13 19.13 0 0 1-3.49 1.1h-.1a12.81 12.81 0 0 0-1.92.53 5.54 5.54 0 0 0-1.7.44c-.08 0-.1.08 0 .12a3.9 3.9 0 0 0 2.54-.4l-.05-.11a7.83 7.83 0 0 1-1.4.42 2.57 2.57 0 0 1-.9 0c-.05 0-.05 0 0 0 .73-.29 2.16-.55 2.36-.31a.61.61 0 0 1 .26.18c.06.08.2.05.29 0s.15-.15.15-.27h-.15a1.36 1.36 0 0 0-.36.06.8.8 0 0 0-.32-.19 3 3 0 0 1 .91-.23c-.21.14-.11.32-.23.36h.15v-.14c.15-.36.77-.41 1.09-.5a1.2 1.2 0 0 1-.28.27c0 .5-.22 1-.25 1.46.15 0 .15.16.18.26s-.11 0-.18 0c-.23-.11.05-.31-.13-.47a5.33 5.33 0 0 0 .25-1.25c-.07 0-.09.07-.12.12a8.52 8.52 0 0 1-.26 1.16s.11.07.11.13 0 .23-.05.33h-1.5l-.14.16h2.26v-.08a1.21 1.21 0 0 1 0-1.28l.39-.52c.33-.13.52-.53.87-.66 0 .18-.22.25-.33.35-.13.28-.51.31-.56.62a6 6 0 0 0 .54.43c.18.11.13.36.27.47a.09.09 0 0 1 0 .12zm2.51-5.92c-.06.1-.2.16-.11.34a.22.22 0 0 0-.07.33.25.25 0 0 0 0 .35c-.13.14 0 .27.09.32a.31.31 0 0 0 0 .27.89.89 0 0 1-.27.31 3.85 3.85 0 0 0-.05 1.1 6.18 6.18 0 0 0 1.28-.76c-.31-.21-.55-.72-.9-.69a2 2 0 0 1 .33-1.65c.06 0 .16-.05.21-.08-.21 0-.49.09-.69 0 0 0 .1.16.2.18z"></path>
  <path fill-rule="evenodd" d="M24.46 12.75h.13v-.08h-.1a.46.46 0 0 0 0 .09l-.23-.17s.1-.1.15-.1a.81.81 0 0 1 .37 0 .6.6 0 0 1 .15.2c.18.13.48.13.66.28 0 .05.05.13 0 .16s-.16 0-.18 0v.1h-.06v-.12h-.13c-.03 0 0 0 0 .07s.09.05.14 0h.14c0 .09-.05.12-.16.09s.15.14.16.18-.05.06-.16 0a4.77 4.77 0 0 1-.76.59c-.29.13 0-.07 0-.07a3.33 3.33 0 0 0 .7-.59.53.53 0 0 1-.05-.15.43.43 0 0 0-.31.07 4.11 4.11 0 0 1 .1 2 4.4 4.4 0 0 0-.12-2 1 1 0 0 1-.36 0c0 .67.51.77.31 1.65-.57-.09-1-.8-1.31-.73 0-.12-.13-.32 0-.38 0-.1-.07-.23.08-.31-.05-.13-.07-.25.08-.35a.21.21 0 0 1 .16-.29.35.35 0 0 1 .14-.19.34.34 0 0 1-.18-.22.53.53 0 0 0 .44.1l.23.17ZM5 21.12h1.8v.66h-.55v1.1h2.03v-1.1h-.57v-.66h1.83v.66h-.59v3.23h.59v.64H7.71v-.64h.57v-1.49H6.25v1.49h.55v.64H5v-.64h.57v-3.23H5v-.66zM26.57 21.12h3.71v1.27h-.62v-.61h-1.81v1.08h1.54v.64h-1.54v1.51h1.79v-.87h.66v1.51h-3.73v-.64h.61v-3.23h-.61v-.66zM10.38 21.12h3.72v1.27h-.64v-.61h-1.8v1.08h1.54v.64h-1.54v1.51h1.78v-.87h.66v1.51h-3.72v-.64h.6v-3.23h-.6v-.66zM33.92 23.06c-.46-.12-.77-.1-1.25-.25s-.49-.39-.49-.56.18-.62.84-.62a1 1 0 0 1 1.11.82h.64v-1.33h-.62v.38s0-.05-.1-.1A1.69 1.69 0 0 0 33 21a1.36 1.36 0 0 0-1.46 1.23 1.18 1.18 0 0 0 1.05 1.18c.47.13.72.13 1.13.25a.74.74 0 0 1 .65.7c0 .33-.21.77-1.06.77A1.15 1.15 0 0 1 32 24.06h-.61v1.59H32v-.38a.25.25 0 0 0 .1.1 2 2 0 0 0 1.26.41A1.49 1.49 0 0 0 35 24.4a1.27 1.27 0 0 0-1.08-1.34ZM25.11 25.01v-3.23h.61v-.66h-1.64l-1.1 2.66-.01.13-.04-.13-1.08-2.66H20.2v.66h.6v3.23h-.6v.64h1.85v-.64h-.57V21.84l.04.15 1.27 3.02h.36l1.26-3.02.03-.16.02.18v3h-.57v.64h1.83v-.64h-.61zM18.89 25v-.92a1 1 0 0 0-.43-.74 1.05 1.05 0 0 0-.19-.05.69.69 0 0 0 .23 0 1 1 0 0 0 .54-1 1.09 1.09 0 0 0-.46-.93 1.51 1.51 0 0 0-.92-.25h-2.55v.66h.58V25h-.58v.64h1.81V25h-.58v-1.42h1.25a.55.55 0 0 1 .59.53l.05 1.54h1.23V25zm-1.17-2h-1.38v-1.22h1.3a1.27 1.27 0 0 1 .44 0 .56.56 0 0 1 .31.54.63.63 0 0 1-.67.59zm-2.83 4.25c.59 0 .85.33.85.74s-.28.72-.9.72h-.43v1.13H14v-2.59zm-.48 1.13h.46c.28 0 .47-.14.47-.41s-.11-.39-.45-.39h-.48v.8zm4.26 1.46h-.41l-.33-.77H16.8l-.31.77h-.41l1.15-2.6h.26l1.18 2.6zM17 28.73h.84l-.45-1-.39 1zM22.98 29.84h-.37v-2.59h.37v2.59zM25.69 27.81a1.06 1.06 0 0 0-.67-.26c-.25 0-.45.11-.45.29 0 .51 1.22.5 1.22 1.33a.73.73 0 0 1-.79.69 1.36 1.36 0 0 1-.79-.23v-.48a1 1 0 0 0 .76.38c.31 0 .46-.18.46-.33 0-.52-1.23-.59-1.23-1.29 0-.43.34-.69.85-.69a1.15 1.15 0 0 1 .64.18v.41zm-4.3 1.72a1.91 1.91 0 0 1-.14-.21 1.9 1.9 0 0 0-.61-.71.66.66 0 0 0 .46-.61c0-.44-.35-.72-.9-.72h-.68v2.59h.4v-1.16h.16c.2 0 .36.07.71.59l.36.54h.44l-.2-.31zm-1.23-1.15h-.24v-.82h.24c.38 0 .53.15.53.4s-.1.42-.53.42z"></path>
</svg>
