<svg xmlns="http://www.w3.org/2000/svg" width="325.527" height="50.512" id="prada">
  <path fill-rule="evenodd" d="M5.909 50.509H1.335c-.382 0-1.335 0-1.335-.572 0-.38.191-.572.763-.763 4.193-1.335 5.146-3.621 5.146-6.859V8.198c0-3.051-.954-5.338-5.146-6.863C.191 1.335 0 .953 0 .763 0 .002.954.191 1.335.191h37.736a15.438 15.438 0 1 1 0 30.873H20.012V42.69c.193 3.049 1.145 5.144 5.147 6.479.572.193.761.383.761.763 0 .572-.952.572-1.334.572H5.909ZM287.22 32.022h8.957l-8.957-15.248-.956-1.526-8 16.774h8.957Zm0-32.018h6.1l25.537 44.982a8.193 8.193 0 0 0 2.862 2.854 10.558 10.558 0 0 0 3.047 1.335c.383.193.763.383.763.763 0 .572-.952.572-1.335.572h-22.681c-.38 0-1.526 0-1.526-.572 0-.38.383-.572.767-.763a3.168 3.168 0 0 0 2.282-2.095c.383-1.335 0-2.095-.952-3.814q-1.942-4.126-4-8.194h-21.348l-.189.38c-.193.763-1.715 3.43-2.862 6.29-1.523 3.049-2.095 3.81-1.715 5.336.193 1.143 1.143 1.715 2.286 2.095.383.193.576.383.576.763 0 .572-.956.572-1.335.572h-10.485c-.38 0-1.335 0-1.335-.572 0-.38.193-.572.763-.763a10.546 10.546 0 0 0 3.049-1.335 8.184 8.184 0 0 0 2.858-2.854l1.335-2.862 14.484-30.3-2.1-3.621a16.468 16.468 0 0 0-5.907-6.1 16.756 16.756 0 0 0-2.858-.954c-.572-.191-.763-.382-.572-.763 0-.382.38-.191.572-.382h13.916Zm-56.988 50.312h.763c35.07 0 34.691-50.123 0-50.123h-28.779c-.572 0-1.523-.191-1.523.572a.848.848 0 0 0 .759.572c4.193 1.334 5.147 3.621 5.336 6.481v34.878c-.189 3.049-1.143 5.144-5.336 6.479-.38.193-.759.383-.759.763 0 .572.952.572 1.523.572h18.487v-.193h9.528Zm0-46.5a9.762 9.762 0 0 1 9.724 9.719v23.253a9.763 9.763 0 0 1-9.724 9.721h-9.53V3.814h9.53Zm-72.613 28.208h8.957l-8.957-15.248-.952-1.526-8 16.774h8.956Zm0-32.018h6.29l25.539 44.982a6.464 6.464 0 0 0 2.669 2.854 9.67 9.67 0 0 0 3.241 1.335c.38.193.759.383.759.763 0 .572-1.143.572-1.523.572h-22.677c-.383 0-1.335 0-1.335-.572 0-.38.189-.572.759-.763a2.918 2.918 0 0 0 2.1-2.095c.38-1.335 0-2.095-.763-3.814-1.335-2.858-2.858-5.527-4.19-8.194h-21.354l-.189.38c-.191.763-1.526 3.43-2.86 6.29-1.334 3.049-2.095 3.81-1.713 5.336a3.176 3.176 0 0 0 2.288 2.095c.38.193.761.383.761.763 0 .572-.952.572-1.523.572h-10.294c-.382 0-1.526 0-1.526-.572 0-.38.382-.572.763-.763a11.612 11.612 0 0 0 3.241-1.335 7.731 7.731 0 0 0 2.667-2.854l1.334-2.862 14.677-30.3-2.1-3.621a18.1 18.1 0 0 0-5.909-6.1 18.736 18.736 0 0 0-3.051-.954c-.382-.191-.763-.382-.57-.763s.57-.191.763-.382h13.721ZM94.723 33.357a23.265 23.265 0 0 0 13.912.572l16.583 14.294 1.334 1.143a.7.7 0 0 1 .193.572c0 .572-.954.572-1.335.572h-17.534L94.725 39.647l-10.674-8.578v11.819c.193 2.858 1.335 4.953 5.336 6.288.382.193.572.383.572.763 0 .572-.954.572-1.335.572H65.562c-.57 0-1.524 0-1.524-.572 0-.38.382-.572.761-.763 4.575-1.523 5.147-3.81 5.336-7.431V8.768c-.191-3.43-.763-5.909-5.336-7.433a.849.849 0 0 1-.761-.572c0-.761.954-.572 1.524-.572h37.165a15.437 15.437 0 1 1 0 30.873H90.721c.572 1.143 1.906 1.526 3.049 2.1.382 0 .572.194.954.194Zm0-5.909h1.524c4.955 0 9.148-5.338 9.148-12.2 0-6.67-4.193-12.006-9.148-12.006h-12.2v24.207h10.674ZM30.875 3.243H20.012V27.45h12.584c5.146 0 9.148-5.338 9.148-12.2 0-6.67-4-12.006-9.148-12.006h-1.721Z"></path>
</svg>
