<svg xmlns="http://www.w3.org/2000/svg" viewBox="0 0 24 24" id="rolex">
  <path d="M22.586 4.918c-.781 0-1.414.615-1.414 1.375 0 .479.241.898.622 1.145l-4.795 10.007L18 4.119c.725-.059 1.295-.651 1.295-1.372 0-.759-.633-1.375-1.414-1.375s-1.414.616-1.414 1.375c0 .598.392 1.096.94 1.286l-3.29 13.011L12.49 2.691c.603-.157 1.042-.681 1.042-1.316C13.531.615 12.899 0 12.118 0s-1.414.615-1.414 1.375c0 .686.521 1.24 1.197 1.343l-1.312 13.983L6.776 4.074c.45-.23.757-.683.757-1.212 0-.759-.633-1.375-1.414-1.375s-1.414.616-1.414 1.375.633 1.375 1.414 1.375l.062-.003 1.643 13.211-5.538-9.612a1.36 1.36 0 0 0 .542-1.082c0-.759-.633-1.375-1.414-1.375C.633 5.376 0 5.991 0 6.751c0 .759.633 1.375 1.414 1.375.103 0 .204-.011.3-.031l4.64 13.525c1.059 3.145 10.468 3.203 11.88 0l4.19-13.968c.058.007.102.017.162.017C23.367 7.668 24 7.052 24 6.293s-.633-1.375-1.414-1.375zM12.177 23.066c-2.398 0-4.342-.703-4.342-1.569 0-.867 1.944-1.274 4.342-1.274s4.087.407 4.087 1.274c0 .866-1.69 1.569-4.087 1.569z"></path>
</svg>
